<?xml version="1.0" ?><!DOCTYPE svg  PUBLIC '-//W3C//DTD SVG 1.1//EN'  'http://www.w3.org/Graphics/SVG/1.1/DTD/svg11.dtd'><svg xmlns="http://www.w3.org/2000/svg" xmlns:xlink="http://www.w3.org/1999/xlink" version="1.1" width="512" height="350" viewBox="0 0 512 350" xml:space="preserve"><rect x="0" y="0" width="100%" height="100%" ry="60" rx="60" fill="rgba(255, 255, 255, 1)"></rect><g transform="matrix(1 0 0 1 255 175)"><g transform="matrix(1 0 0 1 0 0)"><path style="stroke: rgb(0,0,0); stroke-width: 20; stroke-dasharray: none; stroke-linecap: round; stroke-dashoffset: 0; stroke-linejoin: round; stroke-miterlimit: 10; fill: none; fill-rule: nonzero; opacity: 1;"  transform=" translate(-256, -256)" d="M 444.396 114.479 H 67.603 c -18.328 0 -33.206 14.879 -33.206 33.135 v 216.703 c 0 18.327 14.878 33.205 33.206 33.205 h 376.865 c 18.326 0 33.206 -14.878 33.135 -33.133 V 147.613 C 477.603 129.357 462.724 114.479 444.396 114.479 z M 266.898 331.182 h -44.203 v -86.25 l -44.203 55.272 l -44.202 -55.272 v 86.25 H 89.943 V 180.819 h 44.204 l 44.203 55.272 l 44.203 -55.272 h 44.202 v 150.362 H 266.898 z M 364.145 333.41 l -66.34 -77.409 h 44.203 v -75.182 h 44.203 v 75.182 h 44.203 L 364.145 333.41 z" stroke-linecap="round"/></g></g></svg>
