<?xml version="1.0" ?><!DOCTYPE svg  PUBLIC '-//W3C//DTD SVG 1.1//EN'  'http://www.w3.org/Graphics/SVG/1.1/DTD/svg11.dtd'><svg height="512px" style="enable-background:new 0 0 512 512;" version="1.1" viewBox="0 0 512 512" width="512px" xml:space="preserve" xmlns="http://www.w3.org/2000/svg" xmlns:xlink="http://www.w3.org/1999/xlink"><g id="comp_x5F_205-markdown"><g><path d="    M444.396,114.479H67.603c-18.328,0-33.206,14.879-33.206,33.135v216.703c0,18.327,14.878,33.205,33.206,33.205h376.865    c18.326,0,33.206-14.878,33.135-33.133V147.613C477.603,129.357,462.724,114.479,444.396,114.479z M266.898,331.182h-44.203    v-86.25l-44.203,55.272l-44.202-55.272v86.25H89.943V180.819h44.204l44.203,55.272l44.203-55.272h44.202v150.362H266.898z     M364.145,333.41l-66.34-77.409h44.203v-75.182h44.203v75.182h44.203L364.145,333.41z" style="fill:none;stroke:#000000;stroke-width:20;stroke-linecap:round;stroke-linejoin:round;stroke-miterlimit:10;"/></g></g><g id="Layer_1"/></svg>